<svg width="32" height="32" viewBox="0 0 32 32" fill="none" xmlns="http://www.w3.org/2000/svg">
  <rect width="32" height="32" rx="6" fill="#6366f1"/>
  
  <!-- QR Code Pattern - Simplified for favicon -->
  <!-- Corner squares -->
  <rect x="3" y="3" width="7" height="7" fill="white" rx="1"/>
  <rect x="4" y="4" width="5" height="5" fill="#6366f1" rx="0.5"/>
  <rect x="5" y="5" width="3" height="3" fill="white" rx="0.5"/>
  
  <rect x="22" y="3" width="7" height="7" fill="white" rx="1"/>
  <rect x="23" y="4" width="5" height="5" fill="#6366f1" rx="0.5"/>
  <rect x="24" y="5" width="3" height="3" fill="white" rx="0.5"/>
  
  <rect x="3" y="22" width="7" height="7" fill="white" rx="1"/>
  <rect x="4" y="23" width="5" height="5" fill="#6366f1" rx="0.5"/>
  <rect x="5" y="24" width="3" height="3" fill="white" rx="0.5"/>
  
  <!-- Timing patterns -->
  <rect x="3" y="12" width="2" height="2" fill="white"/>
  <rect x="7" y="12" width="2" height="2" fill="white"/>
  <rect x="11" y="12" width="2" height="2" fill="white"/>
  <rect x="19" y="12" width="2" height="2" fill="white"/>
  <rect x="23" y="12" width="2" height="2" fill="white"/>
  <rect x="27" y="12" width="2" height="2" fill="white"/>
  
  <rect x="12" y="3" width="2" height="2" fill="white"/>
  <rect x="12" y="7" width="2" height="2" fill="white"/>
  <rect x="12" y="11" width="2" height="2" fill="white"/>
  <rect x="12" y="19" width="2" height="2" fill="white"/>
  <rect x="12" y="23" width="2" height="2" fill="white"/>
  <rect x="12" y="27" width="2" height="2" fill="white"/>
  
  <!-- Data modules -->
  <rect x="15" y="15" width="2" height="2" fill="white"/>
  <rect x="17" y="13" width="2" height="2" fill="white"/>
  <rect x="13" y="17" width="2" height="2" fill="white"/>
  <rect x="19" y="15" width="2" height="2" fill="white"/>
  <rect x="15" y="19" width="2" height="2" fill="white"/>
  
  <!-- Additional data pattern -->
  <rect x="22" y="22" width="2" height="2" fill="white"/>
  <rect x="24" y="20" width="2" height="2" fill="white"/>
  <rect x="26" y="22" width="2" height="2" fill="white"/>
  <rect x="20" y="24" width="2" height="2" fill="white"/>
  <rect x="22" y="26" width="2" height="2" fill="white"/>
  <rect x="26" y="26" width="2" height="2" fill="white"/>
  <rect x="24" y="28" width="2" height="2" fill="white"/>
  <rect x="28" y="24" width="2" height="2" fill="white"/>
</svg>
