<svg width="16" height="16" viewBox="0 0 16 16" fill="none" xmlns="http://www.w3.org/2000/svg">
  <rect width="16" height="16" rx="2" fill="#6366f1"/>
  
  <!-- QR Code Pattern - Ultra simplified for 16x16 -->
  <!-- Corner squares -->
  <rect x="1" y="1" width="3" height="3" fill="white"/>
  <rect x="1.5" y="1.5" width="2" height="2" fill="#6366f1"/>
  <rect x="2" y="2" width="1" height="1" fill="white"/>
  
  <rect x="12" y="1" width="3" height="3" fill="white"/>
  <rect x="12.5" y="1.5" width="2" height="2" fill="#6366f1"/>
  <rect x="13" y="2" width="1" height="1" fill="white"/>
  
  <rect x="1" y="12" width="3" height="3" fill="white"/>
  <rect x="1.5" y="12.5" width="2" height="2" fill="#6366f1"/>
  <rect x="2" y="13" width="1" height="1" fill="white"/>
  
  <!-- Timing and data patterns -->
  <rect x="6" y="1" width="1" height="1" fill="white"/>
  <rect x="8" y="1" width="1" height="1" fill="white"/>
  <rect x="10" y="1" width="1" height="1" fill="white"/>
  
  <rect x="1" y="6" width="1" height="1" fill="white"/>
  <rect x="1" y="8" width="1" height="1" fill="white"/>
  <rect x="1" y="10" width="1" height="1" fill="white"/>
  
  <!-- Center alignment -->
  <rect x="7" y="7" width="2" height="2" fill="white"/>
  <rect x="7.5" y="7.5" width="1" height="1" fill="#6366f1"/>
  
  <!-- Data modules -->
  <rect x="6" y="6" width="1" height="1" fill="white"/>
  <rect x="9" y="6" width="1" height="1" fill="white"/>
  <rect x="6" y="9" width="1" height="1" fill="white"/>
  <rect x="9" y="9" width="1" height="1" fill="white"/>
  
  <rect x="12" y="12" width="1" height="1" fill="white"/>
  <rect x="14" y="12" width="1" height="1" fill="white"/>
  <rect x="12" y="14" width="1" height="1" fill="white"/>
  <rect x="14" y="14" width="1" height="1" fill="white"/>
</svg>
